<?xml version="1.0" encoding="UTF-8"?>
<svg version="1.1" xmlns="http://www.w3.org/2000/svg" width="980" height="982">
<path d="M0 0 C0.79575439 0.13124268 1.59150879 0.26248535 2.41137695 0.39770508 C24.07568657 4.21313489 43.10516618 10.58930156 58.69628906 26.49121094 C59.90222124 27.71265904 61.14765774 28.89483052 62.3984375 30.0703125 C78.41529979 45.22803275 87.26360983 67.65788333 88.22363281 89.54931641 C88.60755866 125.45531137 88.60755866 125.45531137 85.0625 141.875 C84.84207031 142.90512207 84.62164063 143.93524414 84.39453125 144.99658203 C72.18758911 200.40415074 46.03403453 252.44922652 17.0625 300.875 C16.18392334 302.34549805 16.18392334 302.34549805 15.28759766 303.84570312 C9.30569333 313.8304117 3.22045846 323.74176534 -3.125 333.5 C-3.63184326 334.28181641 -4.13868652 335.06363281 -4.66088867 335.86914062 C-7.61374354 340.39723982 -10.61963496 344.88437148 -13.67848206 349.34127808 C-15.46133701 351.94592969 -17.22692612 354.56206588 -18.99111938 357.17938232 C-19.86485061 358.46587533 -20.74656824 359.74698406 -21.63656616 361.02227783 C-22.89006306 362.81957662 -24.11499648 364.63361074 -25.3359375 366.453125 C-26.05442871 367.49887695 -26.77291992 368.54462891 -27.51318359 369.62207031 C-29.29724936 373.69661475 -28.89364326 376.67821706 -27.9375 380.875 C-27.68387695 382.01727051 -27.43025391 383.15954102 -27.16894531 384.33642578 C-26.87084961 385.4861084 -26.57275391 386.63579102 -26.265625 387.8203125 C-25.92915831 389.14280917 -25.59341433 390.46548988 -25.25830078 391.78833008 C-25.08333069 392.47440338 -24.9083606 393.16047668 -24.72808838 393.86734009 C-21.71896926 405.73853075 -19.06990102 417.60382546 -17.0625 429.6875 C-16.87204102 430.8213916 -16.68158203 431.9552832 -16.48535156 433.12353516 C-13.42141888 452.39085143 -12.5644257 471.38169282 -12.625 490.875 C-12.62773422 492.69916443 -12.62773422 492.69916443 -12.63052368 494.56018066 C-12.67503945 512.1895858 -13.03924165 529.45181441 -15.9375 546.875 C-16.11442383 547.97972656 -16.29134766 549.08445312 -16.47363281 550.22265625 C-22.30810409 585.97516763 -32.33033305 621.12224536 -47.9375 653.875 C-48.68386719 655.44604492 -48.68386719 655.44604492 -49.4453125 657.04882812 C-66.28338972 692.19727749 -87.74338117 724.6592942 -114.4140625 753.1640625 C-116.68820346 755.60717987 -118.87623686 758.10367738 -121.0625 760.625 C-151.47304563 794.4628522 -191.20692243 821.38143944 -232.00585938 840.94384766 C-233.96511493 841.88831185 -235.91226518 842.85499717 -237.859375 843.82421875 C-320.06222683 884.23390254 -418.08734426 889.89137396 -505.703125 865.5703125 C-506.74907837 865.28039429 -506.74907837 865.28039429 -507.81616211 864.98461914 C-509.57619167 864.48667365 -511.32955081 863.96530134 -513.08203125 863.44140625 C-517.65463971 862.53439089 -520.16206682 863.4187634 -524.18530273 865.78588867 C-525.4194124 866.61341953 -526.64769612 867.44968218 -527.87109375 868.29296875 C-528.53660751 868.74185959 -529.20212128 869.19075043 -529.88780212 869.65324402 C-531.31372226 870.61598133 -532.73726507 871.58224742 -534.15863037 872.55169678 C-537.89730674 875.1001906 -541.65530684 877.61995701 -545.41015625 880.14453125 C-546.15273682 880.64488892 -546.89531738 881.14524658 -547.66040039 881.6607666 C-570.64128706 897.13510878 -594.4359788 911.41832392 -618.75976562 924.67871094 C-621.07307265 925.94947377 -623.37302338 927.24234612 -625.671875 928.5390625 C-681.26957802 959.77304399 -756.09746839 993.81509003 -821.43798828 977.24072266 C-846.75110935 970.08580366 -866.98613435 954.47683895 -880.09130859 931.56567383 C-884.59154472 923.38893398 -887.76041963 914.96024569 -889.9375 905.875 C-890.12296387 905.10115967 -890.30842773 904.32731934 -890.49951172 903.5300293 C-892.27152022 895.12444927 -892.33625891 886.73611627 -892.3125 878.1875 C-892.31162384 877.41599609 -892.31074768 876.64449219 -892.30984497 875.84960938 C-892.25892214 862.19312898 -891.02543732 849.20907458 -887.9375 835.875 C-887.69612305 834.81442383 -887.45474609 833.75384766 -887.20605469 832.66113281 C-876.17399841 785.1885988 -854.87393881 740.15215965 -830.9375 697.875 C-829.98270177 696.17476294 -829.02790618 694.47452438 -828.07318115 692.77424622 C-815.91528524 671.14917539 -802.70525737 650.37291752 -788.89691162 629.77246094 C-788.08514138 628.55911296 -787.2760626 627.34395964 -786.4697876 626.12695312 C-784.54438645 623.22790769 -782.58634946 620.37369515 -780.51367188 617.57763672 C-776.24145086 611.86400069 -776.24145086 611.86400069 -774.69921875 605.09765625 C-775.07118596 603.67877838 -775.49218402 602.27259354 -775.9375 600.875 C-776.51150289 598.47905515 -777.07984773 596.08175212 -777.64453125 593.68359375 C-777.982875 592.32463728 -778.32384848 590.96633326 -778.66723633 589.60864258 C-782.41057718 574.79560768 -785.85563882 560.02674059 -787.9375 544.875 C-788.08558105 543.82570313 -788.23366211 542.77640625 -788.38623047 541.6953125 C-801.5785729 444.22250469 -775.63160397 339.52760892 -714.9375 258.875 C-714.4945459 258.28041992 -714.0515918 257.68583984 -713.59521484 257.07324219 C-697.68220463 235.71325076 -679.32140693 215.06579947 -658.9375 197.875 C-658.05449219 197.10285156 -657.17148437 196.33070313 -656.26171875 195.53515625 C-578.62993466 128.04028922 -476.34319782 95.24927773 -374 101.5625 C-349.09774694 103.35649588 -325.08112336 107.67458328 -300.94335938 113.92797852 C-300.18576828 114.1224054 -299.42817719 114.31683228 -298.64762878 114.51715088 C-297.2352693 114.88135021 -295.82455142 115.25200639 -294.41596985 115.6305542 C-289.1300689 116.99732369 -285.03817157 117.94920504 -280.04760742 115.3972168 C-278.56031128 114.37108276 -278.56031128 114.37108276 -277.04296875 113.32421875 C-276.49837509 112.95453979 -275.95378143 112.58486084 -275.39268494 112.20397949 C-273.62803247 111.00242063 -271.87694392 109.78249416 -270.125 108.5625 C-268.90130438 107.72604337 -267.67652362 106.89117212 -266.45068359 106.05786133 C-264.03143013 104.41219795 -261.61598751 102.76119832 -259.20361328 101.10546875 C-252.5393957 96.55439297 -245.75374419 92.19400157 -238.9375 87.875 C-237.78483643 87.14434326 -237.78483643 87.14434326 -236.60888672 86.39892578 C-175.12697738 47.57403491 -106.0883469 9.33105896 -32.9375 0.125 C-31.92268555 -0.00310059 -30.90787109 -0.13120117 -29.86230469 -0.26318359 C-19.83599651 -1.42510783 -9.97733719 -1.65715479 0 0 Z M-104.9375 108.875 C-105.98180176 109.3587207 -107.02610352 109.84244141 -108.10205078 110.34082031 C-137.7543783 124.12308023 -166.42278508 140.21071927 -193.9375 157.875 C-192.57859975 161.03459162 -191.19345368 162.74336951 -188.4453125 164.79296875 C-187.74639893 165.32035645 -187.04748535 165.84774414 -186.32739258 166.39111328 C-185.57997803 166.9426709 -184.83256348 167.49422852 -184.0625 168.0625 C-183.29381592 168.63983887 -182.52513184 169.21717773 -181.7331543 169.81201172 C-179.47344285 171.50720813 -177.20649178 173.1922549 -174.9375 174.875 C-162.53283516 184.1274043 -150.33343168 193.38916009 -138.9375 203.875 C-137.48397203 205.17207183 -136.02593391 206.46411506 -134.5625 207.75 C-133.95664062 208.28367187 -133.35078125 208.81734375 -132.7265625 209.3671875 C-130.84994729 210.94878896 -128.9140235 212.42090562 -126.9375 213.875 C-128.40341844 217.99931977 -130.42128549 221.31945699 -132.875 224.9375 C-133.29539551 225.55963379 -133.71579102 226.18176758 -134.14892578 226.82275391 C-135.14421083 228.29391069 -136.14181152 229.76350225 -137.14111328 231.23193359 C-138.83907049 233.73017832 -140.53058616 236.23269443 -142.22019958 238.73658752 C-154.01854669 256.21930343 -166.03423426 273.51732042 -178.40649414 290.59960938 C-182.30630634 295.98657226 -186.15690594 301.40344932 -189.9375 306.875 C-193.18957092 305.45761511 -195.25111067 303.74973588 -197.6875 301.1875 C-200.34765854 298.45344817 -203.03999898 295.85612784 -205.9375 293.375 C-208.67601969 291.02465883 -211.23704394 288.58972661 -213.75 286 C-218.48972943 281.21452029 -223.65276179 277.03798502 -228.9375 272.875 C-229.5473877 272.38870117 -230.15727539 271.90240234 -230.78564453 271.40136719 C-274.66295847 236.50415347 -329.36760508 212.76355 -385.9375 212.70703125 C-387.1344751 212.70370285 -388.3314502 212.70037445 -389.56469727 212.69694519 C-392.08235291 212.6919175 -394.60001512 212.68953557 -397.11767578 212.68969727 C-400.90018148 212.68752147 -404.68238983 212.66934968 -408.46484375 212.65039062 C-427.55595576 212.60374944 -446.27202806 213.03818996 -464.8125 218 C-465.988125 218.30566895 -467.16375 218.61133789 -468.375 218.92626953 C-526.39150616 234.39368309 -581.97984824 267.92622505 -618.9375 315.875 C-619.73414063 316.87789062 -620.53078125 317.88078125 -621.3515625 318.9140625 C-646.91125022 351.27143371 -665.01712876 389.81566913 -674.8125 429.8125 C-675.00352295 430.57868652 -675.1945459 431.34487305 -675.39135742 432.13427734 C-679.49853525 449.91528396 -679.28306396 467.92602292 -679.25317383 486.05664062 C-679.24854509 489.09520276 -679.25546397 492.13336442 -679.27368164 495.171875 C-679.40136645 516.6887881 -678.78559175 537.49299887 -672.9375 558.375 C-672.64262695 559.44266602 -672.34775391 560.51033203 -672.04394531 561.61035156 C-660.18345648 603.04411184 -639.78431574 640.85778727 -610.9375 672.875 C-610.4439502 673.42494629 -609.95040039 673.97489258 -609.44189453 674.54150391 C-603.42792982 681.21694603 -597.25295852 687.69559789 -590.76953125 693.91845703 C-588.19846091 696.42560089 -586.43709894 698.62902722 -584.9375 701.875 C-595.16949468 709.29739699 -605.43134165 716.67309289 -615.7734375 723.94140625 C-618.43379793 725.81153017 -621.084893 727.69341902 -623.7265625 729.58984375 C-636.81303708 738.95628841 -650.24542586 747.80636269 -663.65625 756.69824219 C-667.75454809 759.41702386 -671.84728225 762.14408152 -675.9375 764.875 C-679.97087213 763.02755571 -682.56001886 760.37939976 -685.5 757.125 C-686.0273877 756.54645264 -686.55477539 755.96790527 -687.09814453 755.37182617 C-692.16123789 749.74759728 -696.82515193 743.84954645 -701.42333984 737.84375 C-703.08912517 735.67785305 -704.77160164 733.52564282 -706.45703125 731.375 C-712.15725184 724.09556663 -717.78975966 716.7932855 -723.19140625 709.2890625 C-725.03912401 706.73449969 -726.90964543 704.20129152 -728.8125 701.6875 C-729.36679687 700.95144531 -729.92109375 700.21539063 -730.4921875 699.45703125 C-731.20761719 698.67392578 -731.20761719 698.67392578 -731.9375 697.875 C-732.5975 697.875 -733.2575 697.875 -733.9375 697.875 C-735.22914268 699.46718763 -735.22914268 699.46718763 -736.484375 701.58984375 C-737.24572754 702.81634644 -737.24572754 702.81634644 -738.02246094 704.06762695 C-738.84665527 705.42633911 -738.84665527 705.42633911 -739.6875 706.8125 C-740.5542334 708.23018677 -740.5542334 708.23018677 -741.43847656 709.67651367 C-748.24648757 720.90422671 -754.65513977 732.34671553 -760.9375 743.875 C-761.44500793 744.80463562 -761.44500793 744.80463562 -761.96276855 745.75305176 C-784.03637541 786.21750275 -807.13719927 829.84214343 -808.9375 876.875 C-808.97875 877.91140625 -809.02 878.9478125 -809.0625 880.015625 C-809.16618791 884.86303499 -809.1091912 888.44357607 -806.9375 892.875 C-801.08536026 898.72713974 -795.08711614 900.16317041 -786.8125 900.3125 C-742.85659921 900.14180752 -691.91816894 870.31556239 -654.64550781 849.39306641 C-651.87139474 847.83794244 -649.0885922 846.29923475 -646.3046875 844.76171875 C-624.8489209 832.84815092 -604.2349956 819.65610824 -583.9375 805.875 C-582.8556543 805.14071777 -582.8556543 805.14071777 -581.75195312 804.39160156 C-571.39295087 797.344562 -561.1429102 790.14228041 -550.9375 782.875 C-549.86677246 782.11364746 -549.86677246 782.11364746 -548.77441406 781.33691406 C-537.07053299 772.9995426 -525.62064724 764.35377252 -514.21533203 755.61376953 C-511.32602066 753.40823088 -508.41581887 751.23286318 -505.5 749.0625 C-499.4868955 744.56759777 -493.59573472 739.92415579 -487.70654297 735.26904297 C-485.98732719 733.91426487 -484.2624551 732.56710791 -482.53515625 731.22265625 C-473.84288767 724.44855232 -465.32778077 717.47313181 -456.83984375 710.4453125 C-454.32119036 708.3662598 -451.78561001 706.30831871 -449.25 704.25 C-443.92101345 699.89651629 -438.70624695 695.41544792 -433.4921875 690.92578125 C-430.62159431 688.45619219 -427.73208493 686.01025064 -424.83422852 683.57275391 C-419.53576666 679.11560452 -414.32514539 674.57730596 -409.19921875 669.921875 C-407.13076125 668.0499031 -405.04189086 666.2063661 -402.9375 664.375 C-399.03542986 660.97642278 -395.19557019 657.51126007 -391.35546875 654.04296875 C-389.3384831 652.23452443 -387.30258404 650.4551266 -385.25 648.6875 C-380.63350153 644.66788214 -376.18637061 640.46778817 -371.72143555 636.28173828 C-367.69684689 632.50984356 -363.64408158 628.77254619 -359.5625 625.0625 C-355.3358119 621.20408902 -351.24698009 617.25145505 -347.265625 613.140625 C-345.40488974 611.32984237 -343.52516419 609.66206062 -341.55004883 607.9831543 C-335.70857553 602.88421115 -330.28260345 597.3642531 -324.80859375 591.87890625 C-323.64866945 590.71965727 -322.48859688 589.56055663 -321.3283844 588.40159607 C-318.9087839 585.98346178 -316.49098029 583.5635492 -314.07446289 581.14233398 C-310.99606078 578.05823528 -307.91318977 574.97864906 -304.82894802 571.90039158 C-302.43605131 569.51112967 -300.04556762 567.11946486 -297.65577888 564.72709465 C-296.52075383 563.59140839 -295.38500181 562.45644814 -294.24847221 561.32226753 C-288.77087696 555.85351434 -283.33624399 550.38977349 -278.32472229 544.48240662 C-275.3564569 541.04300872 -272.02946939 537.9530407 -268.78125 534.78125 C-265.96045454 531.96445709 -263.37130521 528.96644182 -260.76269531 525.95410156 C-257.78028022 522.55679727 -254.66887871 519.28360986 -251.5625 516 C-245.93906373 510.0278664 -240.37443249 504.0181732 -234.9375 497.875 C-234.10798828 496.93914062 -234.10798828 496.93914062 -233.26171875 495.984375 C-230.5326335 492.88402994 -227.83478395 489.75791153 -225.15234375 486.6171875 C-224.12242521 485.41143324 -223.09247647 484.20570477 -222.0625 483 C-221.28302002 482.0872229 -221.28302002 482.0872229 -220.48779297 481.15600586 C-217.45857467 477.61876142 -214.38601417 474.13107423 -211.25 470.6875 C-207.4770346 466.52912415 -203.92169743 462.22773616 -200.390625 457.86328125 C-197.60297669 454.46749947 -194.74546004 451.13821877 -191.875 447.8125 C-187.85677131 443.14855159 -183.92489667 438.43793731 -180.109375 433.60546875 C-178.42664665 431.48995235 -176.72910237 429.39120175 -175.015625 427.30078125 C-168.78021818 419.69016826 -162.68530405 411.99795335 -156.74121094 404.1574707 C-153.23501829 399.54175678 -149.64947678 395.00293949 -146 390.5 C-140.22955861 383.35892335 -134.79840669 375.98621112 -129.3828125 368.57421875 C-126.23480955 364.26702656 -123.03021677 360.005195 -119.8125 355.75 C-114.2289052 348.33926447 -108.86355663 340.78596884 -103.54980469 333.18017578 C-101.82162619 330.70933063 -100.08700885 328.24308896 -98.3515625 325.77734375 C-92.09798557 316.88375632 -85.8835678 307.97806188 -79.9375 298.875 C-79.56157715 298.30410645 -79.1856543 297.73321289 -78.79833984 297.14501953 C-59.0020952 267.06767775 -41.15392738 236.01967126 -24.9375 203.875 C-24.44121094 202.89321777 -23.94492187 201.91143555 -23.43359375 200.89990234 C2.91584792 149.95843455 2.91584792 149.95843455 6.9296875 94.03515625 C5.44287215 90.3315126 3.1220354 87.4207203 0.0625 84.875 C-32.24571575 74.10559475 -76.43835278 95.56852818 -104.9375 108.875 Z M-129.63305664 503.29296875 C-130.5571936 504.23076172 -130.5571936 504.23076172 -131.5 505.1875 C-132.13478271 505.826875 -132.76956543 506.46625 -133.42358398 507.125 C-137.76586025 511.55064356 -141.74461445 516.15369903 -145.58984375 521.01953125 C-148.97837055 525.14101726 -152.6277963 529.00024855 -156.27709961 532.89013672 C-159.64056229 536.4756542 -162.92783969 540.1063836 -166.140625 543.828125 C-168.96081682 547.04069133 -171.86435368 550.17673541 -174.75927734 553.32177734 C-177.59281449 556.40196036 -180.40100965 559.5020278 -183.1875 562.625 C-188.36208011 568.38885614 -193.67213581 574.02375332 -198.98046875 579.6640625 C-201.5552708 582.39998714 -204.12037565 585.14439036 -206.67578125 587.8984375 C-213.76370885 595.52483072 -220.96372259 603.00424395 -228.39624023 610.296875 C-231.4526684 613.31173796 -234.39794195 616.35985077 -237.18969727 619.62280273 C-240.81959137 623.79358364 -244.64404879 627.7263562 -248.55859375 631.62890625 C-249.61398094 632.68572853 -249.61398094 632.68572853 -250.69068909 633.76390076 C-252.16764648 635.24153367 -253.64584742 636.71792457 -255.12524414 638.19311523 C-257.36915085 640.43166481 -259.60766704 642.67550473 -261.84570312 644.91992188 C-263.29134618 646.36490404 -264.73729945 647.80957592 -266.18359375 649.25390625 C-266.8421788 649.91451553 -267.50076385 650.57512482 -268.17930603 651.25575256 C-272.03113538 655.0885359 -276.00021242 658.71954983 -280.11170959 662.27159119 C-282.52022547 664.3867494 -284.78173191 666.62356948 -287.03125 668.90625 C-287.91683594 669.79957031 -288.80242187 670.69289063 -289.71484375 671.61328125 C-290.61332031 672.52464844 -291.51179687 673.43601562 -292.4375 674.375 C-297.90268476 679.91859487 -303.36075008 685.37012671 -309.27539062 690.43554688 C-311.26339944 692.15724194 -313.11122319 693.98349902 -314.9375 695.875 C-318.01995505 698.99910984 -321.21259772 701.90201088 -324.5390625 704.76171875 C-327.72896323 707.57236418 -330.83021293 710.47363722 -333.9375 713.375 C-338.23941833 717.3878991 -342.561784 721.35835627 -347.015625 725.203125 C-349.34855074 727.23258073 -351.64261245 729.302647 -353.9375 731.375 C-356.91812721 734.06483431 -359.90995233 736.73810364 -362.9375 739.375 C-369.7652083 745.32876163 -376.45912539 751.42885381 -383.125 757.5625 C-387.32250175 761.42422831 -391.57188618 765.20391565 -395.9375 768.875 C-364.60053708 779.32065431 -306.23034868 753.87720104 -277.9375 739.875 C-266.88163891 734.19429926 -256.21914077 727.85617764 -245.9375 720.875 C-245.3604834 720.48344727 -244.7834668 720.09189453 -244.18896484 719.68847656 C-235.30062233 713.6060762 -227.03341912 706.97077306 -218.9375 699.875 C-218.12152344 699.17117188 -217.30554688 698.46734375 -216.46484375 697.7421875 C-204.6950332 687.40676121 -193.48910909 676.30294592 -183.9375 663.875 C-183.15375 662.89660156 -182.37 661.91820312 -181.5625 660.91015625 C-146.83173443 617.28142595 -120.88573613 555.29850646 -122.9375 498.875 C-126.13913773 498.875 -127.4835937 501.15816464 -129.63305664 503.29296875 Z " fill="#FFFF" transform="translate(891.9375,1.125)"/>
<path d="M0 0 C0.66 0.33 1.32 0.66 2 1 C-9.88 12.88 -21.76 24.76 -34 37 C-34.66 36.67 -35.32 36.34 -36 36 C-12.73277968 10.93268197 -12.73277968 10.93268197 -1 1 C-0.67 0.67 -0.34 0.34 0 0 Z " fill="#646464" transform="translate(234,198)"/>
</svg>
